<svg xmlns="http://www.w3.org/2000/svg" viewBox="0 0 1600 1000">
  <defs><radialGradient id="void"><stop stop-color="#182044"/><stop offset=".48" stop-color="#090d24"/><stop offset="1" stop-color="#02040b"/></radialGradient><radialGradient id="core"><stop stop-color="#ffd9a1"/><stop offset=".22" stop-color="#d28f63"/><stop offset=".55" stop-color="#7d4c9e" stop-opacity=".7"/><stop offset="1" stop-color="#1e225b" stop-opacity="0"/></radialGradient><filter id="blur"><feGaussianBlur stdDeviation="24"/></filter></defs>
  <rect width="1600" height="1000" fill="url(#void)"/><g fill="#d8eaff" opacity=".7"><circle cx="126" cy="130" r="2"/><circle cx="284" cy="258" r="3"/><circle cx="472" cy="94" r="2"/><circle cx="1320" cy="184" r="3"/><circle cx="1480" cy="610" r="2"/><circle cx="1160" cy="845" r="2"/><circle cx="318" cy="792" r="2"/></g>
  <ellipse cx="810" cy="486" rx="410" ry="132" fill="url(#core)" filter="url(#blur)" opacity=".72"/><ellipse cx="810" cy="486" rx="290" ry="80" fill="none" stroke="#ad86df" stroke-width="26" opacity=".34" transform="rotate(-17 810 486)"/><ellipse cx="810" cy="486" rx="430" ry="132" fill="none" stroke="#e4b98a" stroke-width="10" opacity=".5" transform="rotate(26 810 486)"/><ellipse cx="810" cy="486" rx="72" ry="55" fill="#e9ad6e" opacity=".75"/><ellipse cx="810" cy="486" rx="24" ry="18" fill="#fff0c3" opacity=".82"/>
  <path d="M400 660C595 230 1050 275 1244 598" fill="none" stroke="#8c62bd" stroke-width="16" opacity=".45"/><path d="M335 520C610 820 1120 700 1308 365" fill="none" stroke="#d3a2ee" stroke-width="9" opacity=".45"/><path d="M545 260C760 95 1120 260 1218 470" fill="none" stroke="#f0d49a" stroke-width="7" opacity=".55"/>
</svg>
